<svg width="350" height="78" viewBox="0 0 350 78" fill="none" xmlns="http://www.w3.org/2000/svg">
<g clip-path="url(#clip0_2743_8518)">
<path d="M99.1993 30.5979C96.981 22.4314 91.9104 15.4054 85.1194 10.6841C79.5876 6.83548 72.914 4.51709 65.7115 4.35611C57.5766 4.17586 50.0434 6.72919 43.9709 11.1627C42.3915 12.3169 40.4939 12.9528 38.5379 12.9528H21.9687C20.4794 12.9528 19.13 13.5563 18.1542 14.5321C17.1864 15.4999 16.5835 16.8343 16.5736 18.3087C16.5531 21.2971 19.0753 23.7416 22.065 23.7416H34.7459C36.2251 23.7416 37.5882 24.3327 38.5883 25.2893C39.6387 26.2937 40.2895 27.7022 40.2553 29.2548C40.2248 30.698 39.6275 32.0008 38.6772 32.9511C37.7007 33.9276 36.3519 34.5305 34.8627 34.5305H29.7635C28.2743 34.5305 26.9261 35.134 25.9503 36.1111C24.9409 37.1205 24.3305 38.5252 24.3722 40.0735C24.4493 43.0097 26.9143 45.3212 29.8518 45.3212H38.8263C41.857 45.3212 44.401 47.8025 44.3364 50.8338C44.3047 52.277 43.7074 53.581 42.757 54.5314C41.7806 55.5091 40.4318 56.112 38.9413 56.112H16.8999C15.4107 56.112 14.0613 56.7155 13.0855 57.6913C12.1351 58.6417 11.5378 59.9457 11.5073 61.3889C11.4415 64.4196 13.9848 66.9014 17.0174 66.9014H38.6666C40.6046 66.9014 42.4885 67.5205 44.0573 68.6586C45.03 69.364 46.04 70.0222 47.0836 70.6283C52.3214 73.6701 58.4083 75.4117 64.9016 75.4117C84.5121 75.4117 100.413 59.5267 100.435 39.9212C100.439 36.6991 100.009 33.5727 99.2006 30.5967L99.1993 30.5979ZM14.9768 34.4348H13.7642C12.275 34.4348 10.9256 35.0383 9.94974 36.0154C8.97204 36.9918 8.36914 38.3406 8.36914 39.8311C8.36914 42.8095 10.7845 45.2249 13.7642 45.2249H14.9768C16.4661 45.2249 17.8155 44.6214 18.7913 43.6455C19.769 42.6691 20.3731 41.3203 20.3731 39.8311C20.3731 36.8514 17.9565 34.4348 14.9768 34.4348Z" fill="white"/>
<path d="M67.2004 48.7171L62.9125 60.15H66.6188L70.322 50.2779L67.2004 48.7171ZM75.0608 23.7062C75.0608 26.5806 72.7284 28.9125 69.8545 28.9125C66.9801 28.9125 64.6477 26.5806 64.6477 23.7062C64.6477 20.8319 66.9796 18.5 69.8545 18.5C72.7284 18.5 75.0608 20.8319 75.0608 23.7062ZM65.5156 32.3835C65.5156 30.4749 63.9527 28.9125 62.0446 28.9125H55.9705C54.0619 28.9125 52.5 30.4749 52.5 32.3835V44.5312C52.5 45.4856 53.2809 46.2665 54.2352 46.2665H63.7799C64.7342 46.2665 65.5156 45.4856 65.5156 44.5312V32.3835Z" fill="#181818"/>
<path d="M71.5886 36.4306L78.4796 40.5659L80.2664 37.59L71.5886 32.3838H68.1182V46.2668L75.0602 49.7378V60.1503H78.5307V47.5923L71.5886 44.1213V36.4306Z" fill="#181818"/>
</g>
<path d="M333.678 27.1572C331.07 27.1572 328.947 26.4412 327.311 25.0093C325.674 23.5263 324.856 21.6853 324.856 19.4863C324.856 17.2873 325.674 15.4719 327.311 14.04C328.947 12.5569 331.07 11.8154 333.678 11.8154C336.235 11.8154 338.331 12.5569 339.968 14.04C341.604 15.4719 342.423 17.2873 342.423 19.4863C342.423 21.6853 341.604 23.5263 339.968 25.0093C338.331 26.4412 336.235 27.1572 333.678 27.1572ZM325.47 68.5032C324.243 68.5032 323.629 68.0173 323.629 67.0457V66.7388C323.629 66.1252 324.14 65.1791 325.163 63.9006C326.186 62.6222 326.697 61.3437 326.697 60.0652V45.4905C326.697 44.1609 326.186 42.8824 325.163 41.6551C324.14 40.3766 323.629 39.5073 323.629 39.047V38.7402C323.629 38.1265 324.217 37.5384 325.393 36.9759L336.976 31.2994C338.05 30.8392 338.894 30.788 339.508 31.146C340.121 31.504 340.428 32.0921 340.428 32.9103V60.0652C340.428 61.3437 340.991 62.6222 342.116 63.9006C343.292 65.1791 343.88 66.1252 343.88 66.7388V67.0457C343.88 68.0173 343.241 68.5032 341.962 68.5032H325.47Z" fill="white"/>
<path d="M318.211 62.0594C318.467 62.4174 319.234 63.0822 320.512 64.0538C321.842 65.0255 322.507 65.9204 322.507 66.7387V67.0455C322.507 68.0171 321.919 68.503 320.742 68.503H304.634C303.457 68.503 302.869 67.9916 302.869 66.9688V66.7387C302.869 66.125 303.253 65.3835 304.02 64.5141C304.787 63.5936 304.94 62.7754 304.48 62.0594L297.73 52.0106L293.894 55.5392V60.1417C293.894 61.4202 294.457 62.6987 295.582 63.9771C296.758 65.2045 297.346 66.125 297.346 66.7387V67.0455C297.346 68.0171 296.733 68.503 295.505 68.503H278.936C277.709 68.503 277.095 68.0171 277.095 67.0455V66.7387C277.095 66.125 277.606 65.2045 278.629 63.9771C279.652 62.6987 280.163 61.4202 280.163 60.1417V25.0858C280.163 23.7562 279.55 22.4777 278.322 21.2504C277.095 19.9719 276.481 19.077 276.481 18.5656V18.2588C276.481 17.6962 277.044 17.1081 278.169 16.4945L290.442 10.818C291.516 10.4089 292.36 10.3833 292.974 10.7413C293.587 11.0993 293.894 11.6618 293.894 12.4289V48.8655L304.25 39.9673C304.864 39.5582 305.094 39.0468 304.94 38.4331C304.838 37.8195 304.582 37.2825 304.173 36.8223C303.815 36.3109 303.406 35.7483 302.946 35.1347C302.537 34.521 302.332 33.984 302.332 33.5238V33.217C302.332 32.1942 302.92 31.6828 304.097 31.6828H316.217C317.393 31.6828 317.981 32.1686 317.981 33.1402V33.4471C317.981 34.0607 317.623 34.7 316.907 35.3648C316.191 35.9785 315.168 36.72 313.839 37.5894C312.56 38.4076 311.537 39.1747 310.77 39.8906L305.861 44.4164L318.211 62.0594Z" fill="white"/>
<path d="M271.665 60.1415C271.819 61.3689 272.1 62.3661 272.509 63.1332C272.969 63.8491 273.404 64.3094 273.813 64.5139C274.273 64.7185 274.682 64.9742 275.04 65.281C275.398 65.5879 275.577 65.9714 275.577 66.4316C275.577 68.1192 272.688 68.963 266.909 68.963C264.557 68.963 262.793 68.6818 261.616 68.1192C260.491 67.5567 259.775 66.6106 259.468 65.281C257.525 67.9403 254.278 69.2699 249.726 69.2699C245.431 69.2699 241.928 68.2727 239.217 66.2782C236.558 64.2838 235.229 61.3944 235.229 57.6101C235.229 53.9281 236.558 51.0643 239.217 49.0188C241.877 46.9221 245.15 45.8737 249.036 45.8737C252.053 45.8737 254.636 46.513 256.784 47.7914V47.5613C256.272 42.4985 255.684 39.0722 255.019 37.2823C254.406 35.4925 253.178 34.5975 251.337 34.5975C250.161 34.5975 249.215 35.1345 248.499 36.2084C247.783 37.2824 247.246 38.4585 246.888 39.737C246.581 41.0155 245.968 42.1917 245.047 43.2656C244.127 44.3395 242.899 44.8765 241.365 44.8765C239.78 44.8765 238.476 44.4163 237.453 43.4958C236.481 42.5752 235.996 41.3735 235.996 39.8904C235.996 36.9244 237.479 34.6998 240.445 33.2168C243.411 31.6826 247.042 30.9155 251.337 30.9155C256.451 30.9155 260.67 32.3219 263.994 35.1345C267.369 37.896 269.364 41.6547 269.978 46.4107L271.665 60.1415ZM253.945 65.3577C255.122 65.3577 256.068 64.7952 256.784 63.6701C257.551 62.5451 257.934 61.2666 257.934 59.8347L257.627 56.3061C257.116 52.0616 255.531 49.9393 252.872 49.9393C251.695 49.9393 250.749 50.4251 250.033 51.3967C249.317 52.3173 248.959 53.5702 248.959 55.1555C248.959 58.0193 249.394 60.4484 250.263 62.4428C251.184 64.3861 252.411 65.3577 253.945 65.3577Z" fill="white"/>
<path d="M229.635 60.1415C229.737 61.42 230.223 62.6985 231.093 63.977C231.962 65.2555 232.397 66.2015 232.397 66.8152V67.122C232.397 68.0937 231.783 68.5795 230.556 68.5795H215.214C213.987 68.5795 213.373 68.0937 213.373 67.122V66.8152C213.373 66.2527 213.859 65.3322 214.83 64.0537C215.802 62.7752 216.237 61.4712 216.134 60.1415L215.367 46.5641C215.163 42.7287 214.651 40.0183 213.833 38.433C213.015 36.7965 211.762 35.9783 210.074 35.9783C208.54 35.9783 207.364 36.6431 206.546 37.9727C205.728 39.3023 205.319 41.0666 205.319 43.2656C205.472 44.3396 205.549 45.4135 205.549 46.4874V60.1415C205.549 61.42 206.009 62.6985 206.929 63.977C207.85 65.2555 208.31 66.2015 208.31 66.8152V67.122C208.31 68.0937 207.697 68.5795 206.469 68.5795H191.204C189.977 68.5795 189.363 68.0937 189.363 67.122V66.8152C189.363 66.2015 189.798 65.2555 190.667 63.977C191.588 62.6985 192.048 61.42 192.048 60.1415V45.5669C192.048 39.1745 190.309 35.9783 186.832 35.9783C185.144 35.9783 183.866 36.6431 182.996 37.9727C182.127 39.3023 181.692 41.0666 181.692 43.2656V60.1415C181.692 61.42 182.255 62.6985 183.38 63.977C184.505 65.2555 185.067 66.2015 185.067 66.8152V67.122C185.067 68.0937 184.454 68.5795 183.226 68.5795H166.657C165.43 68.5795 164.816 68.0937 164.816 67.122V66.8152C164.816 66.2015 165.379 65.2555 166.504 63.977C167.629 62.6985 168.192 61.42 168.192 60.1415V45.0299C168.192 44.0071 167.834 43.1378 167.118 42.4218C166.453 41.6547 165.788 40.9899 165.123 40.4274C164.458 39.8649 164.126 39.2768 164.126 38.6631V38.433C164.126 37.7682 164.74 37.1289 165.967 36.5153L177.473 31.2224C178.394 30.8132 179.11 30.8132 179.621 31.2224C180.133 31.6315 180.388 32.2451 180.388 33.0634V35.8249C182.741 32.552 186.141 30.9155 190.59 30.9155C196.267 30.9155 200.46 33.0122 203.171 37.2056C204.193 35.2112 205.702 33.677 207.697 32.6031C209.691 31.4781 211.967 30.9155 214.524 30.9155C218.257 30.9155 221.427 32.1684 224.035 34.6743C226.695 37.1801 228.229 41.2968 228.638 47.0244L229.635 60.1415Z" fill="white"/>
<path d="M140.416 69.2702C133.717 69.2702 128.168 67.8383 123.77 64.9746C119.372 62.1108 117.173 58.889 117.173 55.3093C117.173 51.6784 119.014 49.8629 122.696 49.8629C124.179 49.8629 125.483 50.3743 126.609 51.3971C127.734 52.3688 128.68 53.5705 129.447 55.0024C130.214 56.3832 131.032 57.7895 131.901 59.2214C132.771 60.6022 133.973 61.7784 135.507 62.75C137.041 63.7216 138.856 64.2075 140.953 64.2075C143.203 64.2075 144.967 63.6449 146.246 62.5199C147.576 61.3948 148.24 59.8351 148.24 57.8406C148.24 55.8462 147.678 54.1842 146.553 52.8546C145.479 51.4738 144.047 50.4255 142.257 49.7095C140.518 48.9424 138.575 48.2776 136.427 47.7151C134.279 47.1014 132.132 46.4111 129.984 45.644C127.836 44.8257 125.867 43.8541 124.077 42.729C122.338 41.5528 120.906 39.8908 119.781 37.743C118.656 35.544 118.094 32.9359 118.094 29.9187C118.094 25.0093 119.986 21.0205 123.77 17.9521C127.555 14.8838 132.592 13.3496 138.882 13.3496C145.07 13.3496 150.286 14.7559 154.53 17.5686C158.826 20.3301 160.948 23.5007 160.897 27.0805C160.897 28.8192 160.386 30.1999 159.363 31.2227C158.391 32.1944 156.96 32.6802 155.067 32.6802C153.38 32.6802 151.948 32.1944 150.772 31.2227C149.596 30.1999 148.649 28.9982 147.934 27.6174C147.269 26.2367 146.578 24.8559 145.862 23.4752C145.198 22.0433 144.252 20.8415 143.024 19.8699C141.848 18.8471 140.391 18.3357 138.652 18.3357C136.351 18.3357 134.586 18.9749 133.359 20.2534C132.132 21.4807 131.518 23.0916 131.518 25.086C131.518 27.285 132.055 29.1516 133.129 30.6858C134.254 32.1688 135.686 33.3194 137.424 34.1377C139.214 34.9559 141.183 35.6974 143.331 36.3622C145.479 36.9759 147.601 37.6663 149.698 38.4333C151.846 39.2004 153.789 40.1465 155.528 41.2716C157.318 42.3455 158.749 43.9052 159.823 45.9508C160.948 47.9964 161.511 50.4766 161.511 53.3915C161.511 58.2498 159.465 62.1108 155.374 64.9746C151.334 67.8383 146.348 69.2702 140.416 69.2702Z" fill="white"/>
<defs>
<clipPath id="clip0_2743_8518">
<rect width="92.0652" height="71.0655" fill="white" transform="translate(8.36914 4.34766)"/>
</clipPath>
</defs>
</svg>
